<?xml version="1.0" encoding="UTF-8"?>
<!DOCTYPE svg  PUBLIC '-//W3C//DTD SVG 20010904//EN'  'http://www.w3.org/TR/2001/REC-SVG-20010904/DTD/svg10.dtd'>
<svg width="1280pt" height="1136pt" version="1.0" viewBox="0 0 1280 1136" xmlns="http://www.w3.org/2000/svg">
<metadata>Created by potrace 1.15, written by Peter Selinger 2001-2017</metadata>
<g transform="translate(0 1136) scale(.1 -.1)">
<path d="m7585 11334c-126-13-435-44-685-69-485-48-1382-136-1875-185-165-16-574-57-910-90-335-33-797-78-1025-100-489-48-473-46-492-68-8-9-372-728-808-1597s-1017-2027-1292-2573c-365-724-498-999-494-1015 3-12 597-1064 1319-2337l1314-2315 840-475c462-261 852-483 867-493 27-18 42-17 699 48 370 36 877 86 1127 111 250 24 545 53 655 64s614 60 1120 110c2138 210 2023 198 2042 209 16 8 209 388 1837 3601 456 899 862 1700 902 1779 41 79 74 150 74 158 0 7-383 687-852 1511-468 823-1100 1936-1405 2472s-560 981-568 989c-7 7-50 17-96 22s-518 67-1048 139c-529 71-975 129-990 129-14-1-129-12-256-25zm-117-2721c177-176 285-313 409-519 366-605 502-1362 387-2144-152-1034-787-2005-1648-2523-408-245-815-375-1275-407l-144-9-36 28c-20 16-51 45-69 63l-32 34 102 18c490 86 963 305 1388 645 52 42 164 143 248 226 605 591 987 1366 1097 2225 35 273 30 676-11 960-77 529-300 1058-610 1441-35 44-64 82-64 84 0 3 29 5 65 5h64l129-127zm142 79c259-167 555-476 737-767 238-382 381-816 434-1315 15-147 15-511 0-660-68-654-298-1270-669-1787-472-658-1112-1109-1817-1278-238-57-343-69-605-70h-235l-128 90 64 8c197 24 294 40 397 63 445 100 863 306 1257 620 137 110 393 364 508 505 456 560 738 1218 833 1941 21 166 30 559 15 729-65 749-342 1389-810 1872-83 86-92 98-66 92 17-4 55-23 85-43zm-468-49c373-443 601-1012 659-1646 15-165 6-601-15-757-117-836-490-1586-1072-2150-481-467-1033-748-1656-844l-93-15-33 37c-455 507-712 1231-712 2002 0 837 287 1637 828 2310 104 129 363 386 497 494 415 333 905 556 1381 630 151 24 142 26 216-61zm1288-163c805-411 1332-1253 1421-2270 15-168 6-581-16-735-114-824-471-1552-1040-2120-263-264-534-460-850-615-275-136-537-220-820-266-211-33-598-29-805 8l-65 12 135 12c363 31 686 122 1025 289 349 171 625 374 920 676 585 599 950 1384 1040 2238 27 255 19 638-20 896-119 781-517 1475-1089 1895-66 49-130 96-141 104-36 27 184-63 305-124zm-365 32c276-176 545-446 741-744 429-650 581-1527 413-2381-271-1379-1321-2501-2559-2736-185-35-291-45-495-45-240 1-326 12-425 57l-74 34 126 6c538 29 1020 192 1488 502 310 206 564 440 801 737 463 581 747 1299 810 2050 15 174 6 586-16 743-97 709-379 1293-850 1759-115 115-113 116 40 18z"/>
</g>
</svg>
