<?xml version="1.0" encoding="UTF-8"?>
<svg version="1.1" viewBox="0 0 48.292 27.803" xml:space="preserve" xmlns="http://www.w3.org/2000/svg"><g transform="translate(131.11 62.877)"><path d="m-129.45-52.723c8.355-13.423 36.247-13.574 44.505-0.24104 3.4915 5.6371 2.933 6.741-3.4105 6.741-5.8983 0-10.322 3.0693-7.1591 4.9674 1.6053 0.9634 1.5931 1.1279-0.18536 2.5043-1.7169 1.3288-3.2687 1.5442-3.2687 1.5442s-1.3268 0.47717-7.841 1.579c-9.208 1.6012-15.061-0.48934-9.7368-3.478 1.6667-0.93566 1.6667-1.0145 0-1.6567-0.97755-0.37663-1.75-1.7094-1.75-3.0195 0-2.178-0.44506-2.3665-6.24-2.643-7.087-0.33813-7.9415-1.4334-4.9137-6.2977zm22.654 4.5c24.369 0 24.23 0.03979 19.352-5.5163-8.1112-9.2382-29.299-10.036-37.907-1.4279-6.9268 6.9268-6.8804 6.9442 18.556 6.9442zm-8.9929 6.0059c2.5244 2.095 20.493-0.93427 20.493-3.4549 0-0.30306-4.95-0.55103-11-0.55103-11.328 0-13.311 0.837-9.4929 4.0059zm7.1398 5.5893c7.3764-0.75573 11.353-2.0547 11.353-3.7085 0-1.3626-10.879-0.52212-15.901 1.2285-5.1178 1.7841-2.5149 3.2036 4.5476 2.48z"/></g></svg>
