<?xml version="1.0" encoding="UTF-8"?>
<svg version="1.1" viewBox="0 0 55.11 33.56" xmlns="http://www.w3.org/2000/svg">
<g transform="translate(8.2438 -16.877)">
<path d="m-7.5858 17.535 0.65799-0.65799h52.549l1.2449 2.0144-16.127 18.439-0.19268 6.5235-0.0873 6.5235-0.64814 0.03631-0.02122-6.3162-0.1461-6.2202h-20.809l-0.18642 6.25-0.12563 6.1657-0.66797 0.03237 0.07727-6.7879-0.19268-6.8398-6.789-7.6602c-3.7339-4.2131-7.33-8.3766-7.9913-9.2522l-1.2024-1.592zm9.6451 10.758 6.8205 7.5837h20.477l1.4981-1.25c1.7472-1.4579 13.884-15.343 13.884-15.884 0-0.20139-11.434-0.36616-25.41-0.36616h-25.41l0.65978 1.1663c0.36288 0.64144 3.729 4.5789 7.4802 8.75z"/>
<rect transform="rotate(90)" x="37.239" y="-30.827" width="13.198" height="1.0541"/>
<rect transform="rotate(90)" x="36.705" y="-8.8448" width="13.656" height="1.0003"/>
</g>
</svg>
