<?xml version="1.0" encoding="UTF-8"?>
<svg version="1.1" viewBox="0 0 51.271 30.026" xml:space="preserve" xmlns="http://www.w3.org/2000/svg"><g transform="translate(68.883 62.564)"><path d="m-66.982-55.819c6.5762-8.3602 37.883-9.1669 46.482-1.1976 1.5623 1.4479 2.1705 2.9498 2.63 4.3881s0.25292 2.7809-0.20616 4.0071c0 0-0.70089 1.3816-1.2188 1.8966-0.65506 0.65127-2.2288 1.2523-2.2288 1.2523-1.4489 0.67265-2.8781 0.64644-5.0923 0.64644-2.7375 0-4.2182 0.6552-3.9168 1.1429 0.3014 0.48768-0.16267 1.4765-1.0313 2.1974-1.4308 1.1875-1.4118 1.4332 0.20214 2.6133 1.6987 1.2421 1.6913 1.3714-0.1597 2.7836-1.3553 1.034-1.5945 1.7131-0.79266 2.25 0.63166 0.42295-2.7433 0.80106-7.5 0.84024-8.6485 0.07123-8.6485 0.07123-2.6485-1.1224 9.242-1.8386 11.731-3.3789 7.8592-4.8645-4.3141-1.6555-20.633 3.0114-17.792 5.0883 2.2064 1.6134-0.18574 1.8864-2.5671 0.29298-1.2983-0.86875-1.239-1.2028 0.44113-2.4847 1.9215-1.466 1.9215-1.4962 0-2.9817-1.8388-1.4216-1.8477-1.5567-0.1701-2.5615 2.9236-1.751 0.94588-2.9378-4.8958-2.9378-2.3201 0-2.6675-0.03112-4.2811-0.17864l-2.6446-0.24179c-0.41779-0.0382-1.2922-0.60366-1.6223-1.1059-0.6602-1.0044-0.9099-3.8976-0.64106-5.2535s0.5311-2.8624 1.795-4.4692zm23.674 9.5867c6.5077-0.0735 10.372 0.20737 13.949 0.08485 3.5766-0.12252 6.6753-0.40473 8.1252-0.7901 1.45-0.38537 1.9293-1.7688 2.0572-2.6309s0.17538-2.0159-0.21428-3.5684c-1.5538-6.1907-13.447-8.6855-24.952-8.0639-5.7523 0.3108-12.863 1.4007-17.08 3.1972-4.2171 1.7965-5.5408 4.2997-5.5408 7.437 0 2.0164-0.24036 3.938 2.7267 4.4085 2.9671 0.47059 9.0603 0.0597 20.929-0.07435zm0.04731 6.7731c13.135-2.4202 13.512-5.0895 0.67875-4.8124-8.9432 0.51426-7.0043 0.15351-7.8928 1.0532l-1.784 1.8066c-3.285 3.3265 1.2712 3.3764 8.998 1.9527z"/></g></svg>
