<?xml version="1.0" encoding="UTF-8"?>
<svg version="1.1" viewBox="0 0 49.074 30.465" xml:space="preserve" xmlns="http://www.w3.org/2000/svg"><g transform="translate(198.34 64.295)"><path d="m-198.25-64.294 3.1525-5.31e-4h43.436l2.3684 0.03159 0.0316 2.3684v14.2l-2.4 2.4h-9.5002l0.0257 5.75-0.0446 5.7149-1.9255-0.09933-0.19994-5.7209-0.11882-5.7149-10.337 0.07027h-11.5v11h-2v-10.895l-5.25-0.30226-5.7706-0.30226-0.0269-8.6287-0.0269-8.6288zm5.9889 16.999h4v-12.93l-3.8685-2.0704h-4.1315v15zm18 0h13v-12.882l-1.5881-1.2433-1.6917-1.317-7.8947 0.03045-9.5752 0.07005-2.6069 1.1182-2.6434 1.3007v12.923zm19 0h4v-7.5l-0.0563-8.1009-2.0094 0.01671-2.8286-0.08974-2.2469 1.5256-1.8234 1.2608v12.93z"/></g></svg>
