<?xml version="1.0" encoding="UTF-8"?>
<svg version="1.1" viewBox="0 0 47.754 29.518" xml:space="preserve" xmlns="http://www.w3.org/2000/svg"><g transform="translate(-17.948 66.411)"><path d="m19.421-54.345c8.749-16.639 39.88-15.881 45.486 1.1072 1.7676 5.3558 0.86521 6.3928-5.563 6.3928-3.2282 0-5.3453 0.39657-5.0104 0.93854 0.31902 0.5162-0.21692 1.4159-1.191 1.9993-1.6933 1.0142-1.6934 1.121-3e-3 2.4348 2.2753 1.7685-1.5641 4.6803-5.9827 4.5373-2.7852-0.09019-2.7852-0.09019 0.41558-1.0158 3.9702-1.1482 4.9522-2.552 2.3606-3.3745-2.6003-0.82531-13.969 1.2436-16.776 3.0528-3.2452 2.0918-5.1982 1.7007-2.3688-0.47437 2.4164-1.8576 2.4164-1.8576 0.0518-2.6081-2.3646-0.75049-2.3646-0.75049-0.09977-2.5844 2.694-2.1815 1.5274-2.6792-7.3684-3.1442-5.7385-0.29991-6.691-2.0504-3.951-7.2613zm22.964 5.5h22.513l-1.5179-3.75c-6.039-14.92-33.116-16.782-41.604-2.8614-4.0976 6.7197-4.435 6.6114 20.609 6.6114zm-0.55691 6.8701c8.1526-1.3464 11.802-3.2399 8.6196-4.4724-2.3395-0.90611-15.397 1.2085-17.32 2.8051-2.6073 2.1638 1.2355 2.9002 8.7008 1.6673z"/></g></svg>
